<svg width="14" height="20" viewBox="0 0 14 20" fill="none" xmlns="http://www.w3.org/2000/svg">
<path d="M11.6427 20C11.0252 19.9999 10.433 19.7894 9.99638 19.4147L0.681797 11.4245C0.245243 11.0499 0 10.542 0 10.0123C0 9.4826 0.245243 8.9746 0.681797 8.60001L9.99638 0.609827C10.2112 0.419041 10.4681 0.266864 10.7523 0.162174C11.0364 0.0574851 11.3419 0.00238022 11.6511 7.54214e-05C11.9603 -0.00222938 12.2669 0.0483115 12.5531 0.14875C12.8393 0.249188 13.0993 0.397512 13.318 0.585067C13.5366 0.772622 13.7095 0.995652 13.8266 1.24114C13.9437 1.48663 14.0026 1.74967 13.9999 2.0149C13.9972 2.28014 13.933 2.54225 13.8109 2.78596C13.6889 3.02967 13.5115 3.25009 13.2891 3.43436L5.62086 10.0123L13.2891 16.5902C13.6147 16.8696 13.8364 17.2254 13.9262 17.6129C14.016 18.0003 13.9699 18.4019 13.7937 18.7668C13.6174 19.1318 13.3191 19.4437 12.9362 19.6632C12.5534 19.8827 12.1032 19.9999 11.6427 20Z" fill="#6C757D"/>
</svg>
