<svg width="14" height="20" viewBox="0 0 14 20" fill="none" xmlns="http://www.w3.org/2000/svg">
<path d="M2.35726 0C2.97481 0.000113136 3.56701 0.210641 4.00362 0.585279L13.3182 8.57546C13.7548 8.95006 14 9.45805 14 9.98773C14 10.5174 13.7548 11.0254 13.3182 11.4L4.00362 19.3902C3.78881 19.581 3.53185 19.7331 3.24775 19.8378C2.96364 19.9425 2.65808 19.9976 2.34888 19.9999C2.03969 20.0022 1.73305 19.9517 1.44687 19.8513C1.16069 19.7508 0.900688 19.6025 0.682046 19.4149C0.463404 19.2274 0.290491 19.0043 0.173405 18.7589C0.0563189 18.5134 -0.0025998 18.2503 8.70228e-05 17.9851C0.00277384 17.7199 0.0670159 17.4577 0.189058 17.214C0.311099 16.9703 0.488499 16.7499 0.710907 16.5656L8.37914 9.98773L0.710907 3.40981C0.385341 3.13045 0.16364 2.77456 0.0738299 2.38713C-0.01598 1.9997 0.0301349 1.59813 0.206343 1.23318C0.382551 0.868224 0.680945 0.556279 1.0638 0.336781C1.44665 0.117282 1.89677 8.4345e-05 2.35726 0Z" fill="#6C757D"/>
</svg>
