<svg width="244" height="189" viewBox="0 0 244 189" fill="none" xmlns="http://www.w3.org/2000/svg">
<path d="M35 70C48.8071 70 60 58.8071 60 45C60 31.1929 48.8071 20 35 20C21.1929 20 10 31.1929 10 45C10 58.8071 21.1929 70 35 70Z" fill="#FFDB91"/>
<path d="M35.984 188.413H0.483093L8.50617 44.3314L13.7419 10.3738L14.7398 4.64457C15.9214 -2.13911 24.8357 -1.23319 24.9062 5.67767C25.07 21.745 19.0528 36.8662 19.3464 44.3314C20.6709 78.1271 23.4391 126.049 28.7742 140.174C32.7364 150.669 34.8551 184.465 35.984 188.413Z" fill="#7A4F4F"/>
<path d="M243.599 188.413H210.778L207.329 44.3314L200.716 10.3801C200.64 3.45279 209.563 2.33087 210.863 9.10427C210.863 9.10427 217.378 24.2139 218.169 44.3314C219.493 78.1271 231.054 126.049 236.389 140.174C240.351 150.669 242.47 184.465 243.599 188.413Z" fill="#7A4F4F"/>
<path d="M46.7845 93.9983C54.2097 94.6663 71.46 104.789 71.46 104.789C84.865 119.806 104.887 120.697 118.259 121.291C138.14 122.176 153.191 115.251 164.206 110.184C164.206 110.184 189.957 103.548 190.3 103.519C190.71 103.485 191.099 104.617 191.151 104.789C192.001 107.6 182.657 118.014 171.864 121.609C170.394 122.098 167.058 123.074 163.639 126.052C161.516 127.901 160.269 129.731 159.952 130.177C157.056 134.256 141.666 149.792 124.215 150.489C109.29 151.084 97.3587 140.647 83.9396 128.908C78.6173 124.252 79.2556 123.908 72.5946 118.118C57.488 104.986 49.9347 98.4195 46.5009 96.2198C46.0249 95.915 44.3584 94.8728 44.5155 94.3157C44.6589 93.8071 46.252 93.9504 46.7845 93.9983Z" fill="#7367F0"/>
<path d="M44.5152 94.633C44.4641 94.633 44.4124 94.6175 44.3659 94.5853L7.43637 68.9359C7.30328 68.8436 7.26228 68.6479 7.34496 68.4989C7.4275 68.3497 7.60255 68.3038 7.7355 68.3967L44.665 94.046C44.7981 94.1384 44.8391 94.3342 44.7565 94.483C44.7027 94.5797 44.6101 94.633 44.5152 94.633Z" fill="#3F3D56"/>
<path d="M190.3 103.836C190.198 103.836 190.099 103.775 190.048 103.666C189.976 103.511 190.03 103.319 190.169 103.238L222.117 84.5678C222.256 84.4866 222.427 84.5468 222.499 84.7022C222.572 84.8575 222.518 85.0493 222.379 85.1305L190.431 103.801C190.389 103.825 190.344 103.836 190.3 103.836Z" fill="#3F3D56"/>
<path d="M76.0256 99.831C76.0256 99.831 74.2148 103.014 75.7041 104.889C77.1934 106.763 86.1966 114.23 86.1966 114.23C86.1966 114.23 91.8684 118.122 91.313 112.763C90.7575 107.403 82.672 101.668 82.672 101.668L76.0256 99.831Z" fill="#E6E6E6"/>
<path d="M90.7431 91.4067C89.7746 91.3022 88.8706 92.5978 88.7237 94.3012C88.6567 94.9808 88.7361 95.6684 88.9553 96.3065L88.8104 98.2391L88.7807 98.2424L86.7642 107.117C86.2953 109.18 86.678 111.391 87.8654 113.055C88.5717 114.044 89.4035 114.648 90.1604 113.756C91.4165 112.275 91.3768 105.038 91.2442 100.9L91.6603 96.5985C91.9847 96.0189 92.1803 95.3607 92.2306 94.6792C92.3777 92.9764 91.7116 91.5113 90.7431 91.4067Z" fill="#FFB6B6"/>
<path d="M93.6262 91.0227L93.6156 90.8891C93.6076 90.783 93.5651 90.6871 93.4988 90.622C93.4325 90.5569 93.3476 90.533 93.2653 90.5501L89.2748 91.5295C89.1926 91.55 89.1236 91.6116 89.0785 91.7007C89.036 91.7931 89.0228 91.9027 89.044 92.0054L89.0812 92.1835L89.3465 93.4608L90.3706 98.3918C90.4078 98.5699 90.5378 98.6863 90.6758 98.6726C90.689 98.6726 90.6996 98.6726 90.7129 98.6692L93.8676 97.8679C93.8995 97.861 93.9286 97.8473 93.9552 97.8268C94.056 97.7549 94.117 97.6111 94.1064 97.457L93.6262 91.0227Z" fill="#7367F0"/>
<path d="M93.5489 90.2793C93.4919 90.281 93.4156 90.2841 93.3241 90.2893C93.3425 90.2271 93.3456 90.1568 93.3282 90.0879L93.2076 89.6099C93.1763 89.4858 93.0873 89.4015 92.9862 89.4008C92.3838 89.3968 90.3196 89.4572 89.1118 90.4207C89.0363 90.481 88.9949 90.5927 89.0037 90.7068L89.044 91.2314C89.0489 91.2963 89.0694 91.3538 89.0999 91.3992C88.997 91.4539 88.8946 91.5106 88.7934 91.5708C88.73 91.6084 88.6902 91.6915 88.6911 91.7816L88.6933 92.0075C88.6948 92.1509 88.7966 92.2575 88.9056 92.2297L93.6717 91.0136C93.7802 90.9859 93.843 90.8386 93.803 90.7055L93.7188 90.4257C93.6917 90.3355 93.6238 90.2771 93.5489 90.2793Z" fill="#3F3D56"/>
<path d="M81.2165 97.3626L79.9924 101.814L74.7898 100.444L74.4838 93.2534L81.2165 97.3626Z" fill="#FFB6B6"/>
<path d="M73.8717 99.4171L80.6044 100.102L83.3022 103.05L87.0312 106.608C87.0312 106.608 89.1734 110.033 88.5613 114.484L92.2338 117.909L83.0527 128.44L71.4234 117.566C71.4234 117.566 67.445 104.211 73.8717 99.4171Z" fill="#E6E6E6"/>
<path d="M89.7855 118.251L92.4579 117.909L96.7954 118.251L111.046 108.756C112.838 107.561 115.154 108.185 116.264 110.162L127.734 130.579L124.061 133.318L112.738 120.306L98.6171 133.318C98.6171 133.318 84.2769 141.712 83.0527 128.44L89.7855 118.251Z" fill="#2F2E41"/>
<path d="M98.6605 130.236L121.613 127.839L143.342 134.003L144.566 128.866L114.88 116.881L104.169 119.963L98.6605 130.236Z" fill="#2F2E41"/>
<path d="M72.9198 102.202C72.9198 102.202 70.8138 105.149 72.1145 107.191C73.4151 109.234 81.6489 117.741 81.6489 117.741C81.6489 117.741 86.914 122.292 86.8766 116.897C86.8391 111.502 79.3513 104.828 79.3513 104.828L72.9198 102.202Z" fill="#E6E6E6"/>
<path d="M79.4319 97.5775C82.6409 97.5775 85.2424 94.6666 85.2424 91.0759C85.2424 87.4851 82.6409 84.5743 79.4319 84.5743C76.2228 84.5743 73.6213 87.4851 73.6213 91.0759C73.6213 94.6666 76.2228 97.5775 79.4319 97.5775Z" fill="#FFB6B6"/>
<path d="M84.7884 89.9584C83.2982 89.9544 83.2136 89.9655 82.9726 89.9584C81.1244 89.9039 80.641 89.0902 79.7042 89.1457C78.0322 89.2447 80.239 98.625 81.1568 102.962C82.057 107.215 79.0149 111.026 78.7963 111.292C75.7086 115.049 70.2849 115.736 69.3543 114.136C68.601 112.841 71.2706 110.872 70.6253 108.041C69.9945 105.274 67.0816 105.568 66.2674 102.962C65.4147 100.232 68.2803 98.8546 70.0806 92.1933C71.1145 88.3677 70.9316 87.6549 71.8964 85.2854C74.4752 78.9519 87.1153 81.6485 85.6963 87.5203C85.4218 88.6561 86.1523 89.9621 84.7884 89.9584Z" fill="#2F2E41"/>
<path d="M44.9409 94.157C52.3661 94.825 69.4856 108.738 69.4856 108.738C82.8906 123.756 102.912 124.646 116.284 125.241C136.166 126.125 151.216 119.201 162.232 114.133C162.232 114.133 185.054 118.286 187.758 108.421C187.784 108.327 187.982 107.497 188.325 107.469C188.736 107.435 189.124 108.567 189.176 108.738C190.026 111.549 180.682 121.964 169.89 125.558C168.419 126.048 165.084 127.023 161.664 130.001C159.542 131.85 158.294 133.68 157.977 134.127C155.081 138.205 139.692 153.741 122.24 154.438C107.315 155.034 95.3842 144.597 81.9651 132.858C76.6428 128.201 77.2811 127.858 70.6201 122.067C55.5135 108.935 47.9602 102.369 44.5264 100.169C44.0505 99.8645 43.3657 94.3968 43.5227 93.8396C43.6661 93.331 44.4084 94.1091 44.9409 94.157Z" fill="#7367F0"/>
<path d="M104.669 128.099C105.1 127.123 104.339 125.718 102.967 124.959C102.423 124.648 101.821 124.487 101.21 124.49L99.6466 123.652L99.6544 123.62L92.9559 118.36C91.3984 117.137 89.4155 116.752 87.604 117.404C86.5264 117.791 85.7264 118.447 86.2033 119.556C86.9947 121.395 93.0551 123.923 96.5597 125.253L100.006 127.216C100.375 127.761 100.855 128.199 101.407 128.494C102.777 129.252 104.238 129.075 104.669 128.099Z" fill="#FFB6B6"/>
</svg>
